<svg viewBox="0 0 24 24" class="hitagi__sc-1apuy4g-0 hmhZOG"><path d="M8.05731 22.3674L9.60454 22.8002L11.5974 21.6551L12.043 20.0773L13.5902 20.51L15.583 19.3649L16.0287 17.7871L17.5759 18.2199L19.5687 17.0748L20.0143 15.4969L21.5615 15.9297L23.5544 14.7846L24 13.2068L23.4492 12.2014L7.50651 21.3621L8.05731 22.3674ZM12.1328 3.50265L11.0312 1.49196C10.8798 1.21549 10.5316 1.11811 10.2576 1.27556L0.29345 7.00098C0.0194354 7.15843 -0.0808273 7.51346 0.0706444 7.78993L1.44766 10.3033L11.91 4.29159C12.184 4.13414 12.2843 3.77912 12.1328 3.50265ZM18.3935 8.4063L14.1658 9.60458L12.4221 10.6065C12.2851 10.6853 12.111 10.6366 12.0353 10.4983L11.7599 9.99565C11.6842 9.85742 11.7343 9.6799 11.8713 9.60118L13.615 8.59924L13.0642 7.59389L11.3205 8.59584C11.1835 8.67456 11.0094 8.62587 10.9337 8.48765L10.6583 7.98497C10.5826 7.84673 10.6327 7.66922 10.7697 7.5905L12.5134 6.58855L11.9626 5.58321L1.99846 11.3086L6.9557 20.3567L22.8984 11.196L22.2615 10.0336C21.5024 8.64813 19.9073 7.97847 18.3935 8.4063Z"></path></svg>