<svg fill="#fff" version="1.1" id="Capa_1" xmlns="http://www.w3.org/2000/svg" xmlns:xlink="http://www.w3.org/1999/xlink" viewBox="0 0 395 395" xml:space="preserve"><g><path d="M313.002,0H82C36.785,0,0,36.784,0,81.998v230.993C0,358.211,36.785,395,82,395h231.002 C358.216,395,395,358.211,395,312.991V81.998C395,36.784,358.216,0,313.002,0z M380,312.991C380,349.94,349.944,380,313.002,380H82 c-36.944,0-67-30.06-67-67.009V81.998C15,45.055,45.056,15,82,15h231.002C349.944,15,380,45.055,380,81.998V312.991z"/><path d="M305.336,107.5c-21.492,0-38.915,17.422-38.915,38.912c0,21.495,17.423,38.915,38.915,38.915 c21.49,0,38.911-17.42,38.911-38.915C344.247,124.922,326.826,107.5,305.336,107.5z"/><path d="M309.227,186.313c-10.602,0-21.818,7.267-21.818,7.267l-20.557-20.553c-2.876-2.876-3.857-3.915-6.746-3.915H145.701 H65.539v-0.193c0-2.149-1.742-3.891-3.892-3.891c-2.149,0-3.892,1.742-3.892,3.891v0.193h-7.003c-4.298,0-7.782,3.484-7.782,7.783 c0,4.298,3.484,7.783,7.782,7.783h87.166v9.081c0,4.298,3.484,7.783,7.782,7.783h36.863c-0.523,5.762,2.184,11.588,7.477,14.765 l53.325,31.996c2.468,1.48,5.238,2.218,8.009,2.218c2.905,0,5.809-0.813,8.355-2.433l14.475-9.209V287.5h70.042v-66.164 C344.247,201.992,328.567,186.313,309.227,186.313z M251.135,216.658L225.94,201.54h26.137l8.872,8.873L251.135,216.658z"/><path d="M167.491,165.612h45.528c4.298,0,7.782-3.484,7.782-7.783s-3.484-7.783-7.782-7.783h-45.528 c-4.298,0-7.782,3.484-7.782,7.783S163.193,165.612,167.491,165.612z"/></g></svg>