<svg fill="#fff" viewBox="0 0 512.001 512.001"><g><g><path d="M120.988,239.868c-4.496,10.625-5.122,20.183-5.157,20.811c-0.267,4.607,3.243,8.547,7.849,8.829 c4.618,0.29,8.574-3.228,8.873-7.833c0.265-4.771,2.339-13.092,5.884-19.44C137.421,242.113,141.397,242.649,120.988,239.868z"/></g></g><g><g><path d="M391.178,255.418c-0.211,8.054-2.458,17.62-6.74,28.398c-1.708,4.299,0.393,9.168,4.692,10.875 c4.293,1.708,9.167-0.39,10.875-4.692c5.103-12.842,7.74-24.392,7.943-34.581H391.178z"/></g></g><g><g><path d="M164.769,210.51c1.046,3.339,1.397,6.953,0.893,10.65c-0.293,2.146-0.857,4.188-1.648,6.1c0,0,51.266,3.416,198.065,3.949 c-0.086-6.331,2.19-12.199,6.244-16.732C217.627,214.046,164.769,210.51,164.769,210.51z"/></g></g><g><g><circle cx="37.179" cy="128.669" r="29.491"/></g></g><g><g><path d="M510.146,391.511l-37.916-66.985c14.35-49.173,20.678-68.137,20.678-68.137l8.949-67.014 c1.502-10.977-6.248-21.075-17.235-22.468l-18.183-2.305c-10.984-1.393-20.996,6.445-22.293,17.431l-1.884,15.955l28.718-21.317 l-37.91,42.278h-46.432c-6.571,0-11.898,5.328-11.898,11.898c0,6.57,5.328,11.898,11.898,11.898h51.744 c3.381,0,6.601-1.438,8.859-3.956l41.456-46.234l-32.023,54.694c-5.28,9.018-14.374,8.169-18.293,8.167c-1.959,0-3.31,0-5.295,0 c-0.399,0.898,3.152-7.399-24.44,57.181c-0.548,1.284-0.907,2.642-1.06,4.031l-8.934,80.338 c-0.939,8.447,5.667,15.857,14.208,15.857c7.179,0,13.361-5.401,14.172-12.701l8.702-78.244l21.512-50.353l-14.121,50.463 c-1.158,3.756-0.718,7.823,1.218,11.243l40.949,72.345c3.885,6.864,12.596,9.276,19.459,5.392 C511.615,407.085,514.03,398.373,510.146,391.511z"/></g></g><g><g><circle cx="464.865" cy="128.702" r="29.491"/></g></g><g><g><path d="M142.923,206.051l-59.556-8.118l-39.135-18.451l13.626,2.292c-1.422-10.945-11.411-18.577-22.254-17.202l-18.182,2.305 C6.43,168.271-1.315,178.374,0.186,189.345l9.12,68.689l21.865,70.857l5.829,70.795c0.646,7.848,7.527,13.705,15.401,13.057 c7.859-0.647,13.705-7.542,13.058-15.401l-5.956-72.345c-0.084-1.031-0.281-2.05-0.585-3.039l-14.123-50.463l21.514,50.353 l8.702,78.244c0.873,7.86,7.96,13.486,15.768,12.612c7.838-0.871,13.483-7.931,12.612-15.768l-8.934-80.338 c-0.154-1.388-0.511-2.747-1.06-4.032l-27.336-61.43l-2.945-24.951l-29.029-25.179l40.79,19.231 c1.097,0.517,2.266,0.862,3.468,1.027l61.369,8.365c6.521,0.887,12.509-3.68,13.396-10.183 C153.994,212.936,149.435,206.939,142.923,206.051z"/></g></g></svg>